<?xml version="1.0" standalone="no"?>
<!DOCTYPE svg PUBLIC "-//W3C//DTD SVG 20010904//EN"
 "http://www.w3.org/TR/2001/REC-SVG-20010904/DTD/svg10.dtd">
<svg version="1.0" xmlns="http://www.w3.org/2000/svg"
 width="900.000000pt" height="1134.000000pt" viewBox="0 0 900.000000 1134.000000"
 preserveAspectRatio="xMidYMid meet">

<g transform="translate(0.000000,1134.000000) scale(0.100000,-0.100000)"
fill="#000000" stroke="none">
<path d="M90 11313 c1 -57 19 -376 34 -578 9 -115 18 -248 21 -295 4 -47 20
-245 36 -440 16 -195 34 -413 40 -485 11 -125 11 -149 7 -260 -1 -27 6 -86 15
-130 16 -77 48 -409 102 -1075 23 -285 44 -560 56 -720 5 -80 17 -235 25 -345
8 -110 17 -299 20 -420 3 -137 10 -243 19 -280 12 -51 39 -355 47 -543 3 -43
7 -54 23 -57 77 -18 174 -25 334 -25 l183 0 -7 -22 c-3 -13 -6 -40 -5 -60 0
-20 -4 -39 -10 -43 -5 -3 -11 -16 -11 -28 -1 -13 -3 -16 -5 -7 -4 13 -16 14
-72 8 -37 -3 -78 -9 -92 -12 -36 -7 -88 -14 -67 -9 9 2 17 9 17 14 0 12 -37
12 -44 0 -9 -14 -174 -5 -251 13 -47 11 -77 24 -90 40 -11 13 -30 29 -42 35
-21 11 -23 10 -23 -18 0 -37 59 -90 136 -121 50 -21 54 -25 54 -55 0 -41 -14
-52 -97 -80 -36 -12 -59 -25 -52 -28 20 -7 -19 -36 -48 -37 -12 0 -29 -7 -38
-16 -14 -15 -108 -39 -179 -46 -30 -3 -50 -28 -23 -28 9 0 17 -5 19 -11 3 -9
10 -9 26 0 13 7 32 9 45 5 12 -5 29 -7 37 -5 7 2 38 0 68 -4 l53 -7 -3 -36
c-2 -30 -7 -38 -26 -40 -20 -3 -22 -8 -17 -33 8 -38 -2 -69 -23 -69 -9 0 -77
-14 -149 -32 -107 -25 -133 -35 -133 -49 0 -23 19 -28 71 -18 24 4 91 8 149 8
83 0 100 -3 83 -11 -13 -6 -23 -17 -23 -25 0 -7 -7 -13 -15 -13 -12 0 -15 -15
-15 -73 0 -61 -3 -75 -20 -87 -21 -15 -27 -40 -10 -40 6 0 10 -7 10 -16 0 -9
10 -25 22 -35 l21 -19 -24 0 c-39 0 -69 -11 -69 -25 0 -8 -9 -17 -20 -20 -20
-6 -29 -45 -10 -45 6 0 10 -7 10 -15 0 -11 -11 -15 -39 -15 -22 0 -42 -6 -45
-12 -5 -10 -7 -10 -12 0 -3 6 -19 12 -35 12 -27 0 -29 -3 -29 -36 0 -34 2 -35
32 -34 18 1 70 2 116 1 63 -1 82 -4 82 -15 0 -8 -15 -17 -36 -21 -21 -3 -46
-12 -58 -20 -12 -7 -47 -16 -79 -20 l-57 -6 0 -569 c0 -533 1 -569 17 -573 17
-4 17 -5 1 -6 -17 -1 -18 -83 -18 -1566 l0 -1565 2051 0 2052 0 -7 40 c-6 35
-2 47 35 100 22 33 45 60 50 60 15 0 10 -49 -7 -75 -16 -24 -15 -25 6 -25 21
0 22 -3 18 -50 -5 -49 -4 -50 22 -50 l26 0 -4 92 c-2 51 -8 97 -13 102 -14 15
-11 24 10 36 21 11 107 -15 115 -35 2 -6 1 -38 -3 -70 -7 -58 -13 -59 -25 -5
-9 37 -23 57 -35 45 -13 -14 9 -115 26 -115 7 0 13 -11 13 -25 0 -25 1 -25 80
-25 68 0 81 3 90 19 14 27 13 32 -6 29 -10 -2 -24 10 -34 28 l-18 31 49 12
c27 7 49 16 49 19 0 4 -9 18 -20 32 -23 29 -25 47 -8 53 21 7 58 -24 58 -48 0
-14 9 -26 25 -33 14 -6 25 -15 25 -19 0 -5 -20 -31 -45 -60 -25 -28 -45 -54
-45 -57 0 -3 52 -6 115 -6 95 0 115 3 115 15 0 8 14 35 32 59 l31 45 -24 20
c-23 19 -23 20 -5 39 10 12 15 25 12 30 -3 6 2 13 11 16 11 5 23 -1 35 -16 18
-23 22 -20 19 18 -2 25 28 41 41 22 4 -7 8 -18 8 -24 0 -6 7 -17 15 -24 23
-19 19 -28 -22 -49 -50 -25 -76 -55 -78 -89 -2 -15 -6 -35 -10 -44 -6 -15 -2
-18 24 -18 30 0 43 14 19 22 -7 3 -3 15 12 36 26 36 28 36 64 22 32 -12 33
-33 4 -60 l-22 -20 36 0 c29 0 37 4 40 20 4 27 21 28 33 1 11 -24 22 -26 62
-10 19 7 29 7 31 0 6 -17 111 -14 128 4 16 15 15 81 -2 168 -5 30 -4 37 9 37
35 0 44 -24 36 -96 -5 -38 -8 -81 -8 -96 l-1 -28 1855 0 1855 0 0 1829 c0
1057 -4 1832 -9 1835 -8 5 -86 24 -196 47 -160 33 -188 40 -197 45 -5 3 -22 7
-36 9 -30 4 -104 23 -207 55 -116 35 -127 38 -210 60 -110 29 -247 59 -325 70
-36 5 -81 14 -100 20 -92 29 -225 64 -325 85 -60 13 -123 31 -140 39 -16 9
-39 16 -50 16 -11 0 -35 9 -53 20 -18 11 -38 20 -45 20 -7 0 -30 9 -52 20 -21
11 -41 18 -43 15 -3 -2 -17 2 -31 9 -42 22 -129 48 -139 42 -5 -3 6 -52 26
-108 50 -149 75 -279 91 -478 l9 -104 -32 -38 c-41 -48 -48 -62 -86 -186 -34
-109 -64 -154 -110 -166 -43 -12 -70 -29 -70 -43 0 -8 5 -11 10 -8 6 3 10 3
10 -2 0 -9 -48 -33 -65 -33 -11 0 -33 -91 -41 -170 -6 -55 -11 -70 -23 -70
-20 0 -31 70 -41 249 -6 102 -15 215 -21 251 -16 108 -49 272 -65 325 -57 195
-67 224 -104 310 -34 77 -50 119 -50 126 0 5 -13 29 -30 55 -16 26 -27 50 -25
54 3 5 -2 10 -10 14 -8 3 -15 12 -15 20 0 19 -37 88 -66 121 -13 15 -21 32
-18 36 3 5 0 9 -5 9 -6 0 -11 7 -11 15 0 9 -7 18 -15 21 -8 4 -15 15 -15 26 0
10 -5 16 -10 13 -9 -6 -14 8 -11 28 0 4 -3 7 -9 7 -5 0 -10 10 -10 23 0 18 -2
19 -10 7 -8 -13 -10 -13 -10 2 0 9 -3 18 -7 20 -14 5 -62 85 -69 112 -3 14
-10 23 -15 20 -5 -3 -9 2 -9 10 0 8 -7 19 -16 24 -9 5 -15 12 -15 15 3 20 0
28 -7 23 -5 -3 -14 12 -22 32 -7 20 -20 48 -29 61 -8 13 -16 30 -17 38 -2 8
-10 20 -19 27 -16 12 -16 15 7 52 37 61 78 160 98 234 6 25 18 59 25 75 48
114 66 279 45 415 -10 64 -29 146 -70 295 -28 102 -75 219 -129 320 -23 43
-41 86 -41 96 0 11 -4 19 -10 19 -5 0 -12 16 -16 35 -3 19 -10 35 -14 35 -4 0
-8 10 -7 23 0 12 -3 33 -6 47 -17 72 -18 88 -9 94 20 12 39 -6 62 -57 28 -64
29 -65 40 -47 5 8 5 21 -1 32 -5 10 -6 18 -1 18 27 0 316 -150 388 -201 90
-64 169 -105 223 -115 47 -9 134 12 158 39 30 33 36 56 13 50 -17 -5 -119 42
-202 94 -20 12 -64 55 -99 95 -34 40 -85 98 -113 128 -105 112 -196 243 -181
259 4 3 9 1 13 -5 4 -6 17 -14 29 -18 25 -8 91 -72 98 -97 3 -9 43 -34 89 -57
79 -39 85 -45 116 -104 46 -86 70 -108 118 -108 47 0 70 16 77 55 5 26 -2 38
-49 89 -47 50 -54 62 -45 79 20 35 -7 97 -69 162 -31 32 -73 81 -93 109 -21
28 -43 57 -49 64 -6 7 -10 34 -9 61 2 44 -1 54 -39 99 -24 28 -58 64 -77 81
-19 17 -35 34 -35 38 0 5 -11 20 -25 35 -25 27 -54 29 -75 3 -14 -17 -2 -45
19 -45 18 0 50 -49 43 -68 -4 -14 -36 -16 -62 -2 -14 7 -20 6 -25 -8 -10 -23
-21 18 -45 173 -25 157 -41 214 -100 365 -27 69 -67 183 -89 255 l-40 129 32
51 c17 27 37 57 44 65 23 28 168 226 186 253 10 16 28 32 40 37 12 5 18 9 14
9 -9 1 31 72 88 156 23 33 68 103 100 155 32 52 67 104 77 116 10 11 18 27 18
36 0 8 8 30 17 49 18 36 24 137 9 141 -5 2 -13 -10 -17 -25 -10 -36 -28 -59
-41 -51 -6 4 -5 10 3 15 11 6 11 11 1 21 -6 6 -12 22 -12 35 0 16 -4 21 -15
17 -8 -4 -15 -1 -15 5 0 6 -4 11 -10 11 -5 0 -10 -5 -10 -12 0 -7 -12 -24 -27
-40 -31 -32 -24 -47 38 -79 40 -20 76 -62 59 -67 -6 -2 -65 24 -131 57 -67 34
-123 61 -125 61 -2 0 -4 -5 -4 -12 0 -15 -118 -208 -141 -230 -16 -16 -18 -16
-33 1 -14 15 -16 121 -18 1017 -2 549 -2 1068 0 1152 l3 152 -788 0 -788 0 30
-25 c17 -13 33 -24 38 -25 4 0 7 -9 7 -20 0 -20 -28 -28 -44 -13 -10 10 -78
33 -99 33 -25 0 -17 22 14 37 19 10 -126 13 -736 13 l-760 0 -15 -33 c-19 -40
-29 -40 -55 0 -20 32 -21 32 -97 33 -89 0 -89 0 -64 -85 13 -41 13 -54 1 -88
-15 -43 -11 -67 11 -67 8 0 14 -9 14 -20 0 -14 -7 -20 -22 -20 -26 -1 -58 -22
-58 -39 0 -19 -39 -51 -55 -45 -8 4 -23 23 -32 43 -9 20 -28 49 -42 64 -24 26
-26 35 -26 120 1 51 5 102 9 115 8 21 6 22 -41 22 -43 0 -51 -3 -61 -25 -13
-28 -29 -31 -57 -11 -17 11 -31 11 -96 -2 l-77 -16 -63 27 -64 27 -443 0
c-418 0 -443 -1 -438 -17 18 -62 18 -72 -1 -69 -13 2 -19 13 -21 44 l-3 42
-65 0 -66 0 8 -32 c4 -18 7 -53 6 -77 l-2 -43 33 7 c57 13 111 12 136 -3 21
-13 23 -19 18 -68 -3 -29 -13 -64 -21 -76 -18 -25 -21 -69 -7 -83 20 -21 37
-191 21 -210 -8 -10 -5 -22 10 -47 11 -18 20 -45 20 -59 0 -14 11 -36 25 -49
14 -13 25 -35 25 -48 0 -23 -3 -24 -37 -19 -22 4 -42 2 -50 -5 -11 -9 -15 -7
-20 10 -3 12 -9 22 -14 22 -13 0 -11 37 2 45 13 8 -15 42 -41 50 -10 3 -20 16
-24 28 -4 16 -8 19 -17 10 -8 -8 -19 -9 -35 -2 -19 7 -27 5 -36 -11 -7 -11
-17 -20 -22 -20 -5 0 -25 -12 -43 -26 -30 -22 -39 -25 -59 -15 -13 6 -24 7
-24 2 0 -5 6 -11 14 -14 9 -4 12 -14 9 -26 -3 -12 -1 -21 6 -21 6 0 11 8 11
18 1 12 5 10 15 -9 14 -27 59 -49 98 -49 11 0 34 -4 51 -10 17 -5 70 -17 118
-26 73 -14 91 -21 105 -43 19 -30 25 -81 11 -98 -6 -8 -7 -34 -3 -65 6 -42 14
-59 40 -83 29 -27 33 -38 44 -124 15 -115 22 -105 -144 -192 -66 -35 -151 -80
-190 -101 -38 -21 -88 -47 -110 -58 -22 -12 -62 -34 -90 -50 -149 -89 -149
-89 -151 127 -1 130 -5 177 -17 204 -9 19 -17 65 -19 104 -3 67 -2 70 24 83
16 7 30 23 32 35 14 67 14 88 2 114 -16 32 -29 186 -17 199 5 5 4 52 -1 104
-5 52 -11 120 -14 150 -3 30 -5 60 -4 65 3 47 6 64 12 70 4 4 0 21 -9 38 -17
33 -23 144 -10 190 7 25 37 39 37 17 0 -5 7 -10 16 -10 20 0 44 -24 44 -44 0
-9 5 -16 10 -16 6 0 10 -11 10 -25 0 -21 -5 -25 -31 -25 -43 0 -27 -17 21 -22
35 -3 39 -1 34 15 -5 15 -1 17 18 12 26 -7 25 -13 34 138 3 54 3 109 0 122
l-6 25 -230 0 -230 0 0 -27z m834 -37 c-7 -28 -34 -36 -34 -10 0 15 31 47 38
39 2 -1 0 -14 -4 -29z m855 -32 c13 -12 12 -16 -3 -33 -25 -28 -56 -37 -67
-20 -10 16 -12 63 -3 72 10 9 56 -3 73 -19z m709 -16 c4 -44 -6 -47 -38 -14
-27 30 -21 59 12 54 19 -2 24 -10 26 -40z m48 -113 c10 -26 -6 -38 -27 -19
-10 9 -16 21 -13 25 8 14 34 10 40 -6z m310 -21 c21 -6 40 -56 29 -74 -6 -10
-55 11 -55 23 0 5 -8 6 -17 3 -30 -9 -47 8 -34 33 12 21 37 26 77 15z m1658
-66 c100 -39 167 -92 240 -190 16 -21 34 -38 42 -38 12 0 46 13 119 46 17 7
60 27 98 44 37 16 71 30 75 30 4 0 40 14 80 30 39 17 105 43 145 60 39 16 80
30 89 30 27 0 31 -39 22 -194 -5 -77 -8 -291 -6 -475 l2 -333 -67 7 c-38 4
-93 14 -123 22 -57 16 -144 32 -195 36 l-29 2 3 87 c2 82 -12 191 -29 213 -4
6 -11 21 -15 35 -10 33 -46 111 -60 128 -5 7 -18 22 -27 33 -10 10 -18 25 -18
32 0 8 -9 22 -20 32 -19 18 -20 17 -21 -6 l0 -24 -17 25 c-52 75 -115 139
-152 154 -25 10 -40 22 -40 33 0 13 -3 14 -12 5 -17 -17 -24 -15 -50 12 -22
24 -147 76 -182 76 -9 0 -25 9 -36 20 -18 18 -24 18 -21 -2 0 -5 -3 -8 -8 -8
-5 0 -12 -17 -16 -37 -9 -50 -34 -103 -49 -103 -6 1 -24 19 -39 41 -24 35 -32
40 -55 35 l-27 -6 32 29 c34 32 27 43 -19 30 -26 -7 -27 -6 -17 13 15 28 115
72 169 74 25 1 61 9 80 17 40 18 79 14 154 -15z m-1954 2 c8 -5 11 -12 8 -16
-10 -9 -38 3 -38 16 0 12 10 13 30 0z m-326 -93 c49 -60 62 -98 40 -114 -30
-22 -99 6 -109 44 -9 37 5 113 20 113 8 0 29 -19 49 -43z m210 20 c8 -12 22
-51 30 -86 13 -56 13 -68 0 -92 -7 -15 -14 -32 -14 -36 0 -14 56 -43 83 -43
13 0 30 -6 36 -14 32 -39 -49 -78 -118 -58 -21 7 -50 12 -63 12 -18 0 -27 7
-31 21 -8 30 -74 23 -98 -11 -15 -22 -16 -33 -7 -88 8 -51 7 -67 -4 -80 -8 -9
-24 -38 -37 -64 -12 -27 -29 -48 -37 -48 -8 0 -35 -11 -61 -24 -63 -34 -90
-22 -58 27 11 17 12 31 6 53 -18 62 -24 154 -11 169 20 24 52 17 81 -17 l28
-33 -1 109 c-1 103 0 110 22 128 27 22 63 17 95 -11 24 -22 70 -34 96 -26 18
6 17 9 -11 36 -32 33 -35 46 -20 98 10 36 55 101 70 101 5 0 16 -10 24 -23z
m166 -16 c15 -30 12 -49 -10 -56 -45 -14 -87 28 -60 60 18 21 57 18 70 -4z
m230 -21 c0 -5 -7 -10 -15 -10 -8 0 -15 5 -15 10 0 6 7 10 15 10 8 0 15 -4 15
-10z m-2510 -14 c0 -8 5 -16 12 -18 7 -3 9 -14 4 -32 -5 -21 -12 -27 -29 -24
-35 5 -38 88 -2 88 8 0 15 -6 15 -14z m4075 -25 c69 -34 101 -58 92 -68 -4 -3
-26 3 -49 14 -24 11 -63 27 -88 35 -26 8 -46 22 -48 31 -5 25 25 21 93 -12z
m-574 -88 c5 -15 9 -38 7 -52 -7 -60 -88 -18 -88 46 0 31 2 33 35 33 29 0 37
-5 46 -27z m-3479 -110 c5 -147 -13 -167 -26 -28 -2 28 -7 62 -11 77 -9 33 -1
58 19 58 11 0 15 -22 18 -107z m3985 -41 c33 -65 38 -84 27 -89 -22 -8 -17
-25 6 -18 20 6 65 -3 57 -12 -3 -2 -7 -3 -9 -1 -3 2 -16 -10 -29 -26 -22 -25
-28 -27 -47 -17 -20 11 -22 9 -23 -16 0 -27 -1 -28 -11 -5 -14 28 -28 28 -28
0 0 -20 -1 -20 -18 -5 -15 13 -25 15 -53 7 -18 -6 -40 -10 -46 -10 -19 0 -16
20 5 28 11 5 17 19 18 42 1 19 16 75 34 123 43 116 58 116 117 -1z m-3317 27
c0 -12 -39 -31 -49 -24 -8 5 -6 28 6 65 3 12 8 10 24 -9 10 -13 19 -27 19 -32z
m3341 -423 c5 -6 9 -25 9 -43 0 -19 6 -49 14 -68 13 -31 13 -35 -4 -40 -53
-17 -96 -85 -53 -85 19 0 63 -38 63 -54 0 -10 -70 -56 -84 -56 -4 0 -6 7 -6
15 0 8 -6 15 -12 16 -7 0 -28 2 -45 3 -19 2 -37 -2 -44 -10 -6 -8 -22 -14 -36
-14 -19 0 -29 10 -48 52 -28 59 -25 90 11 129 13 14 24 32 25 40 0 10 2 9 7
-3 5 -13 11 -15 22 -8 10 7 11 10 3 10 -7 0 -13 7 -13 15 0 25 31 14 44 -15 3
-8 4 -5 2 8 -3 16 1 22 14 22 11 0 32 12 47 26 15 14 36 33 46 42 10 9 15 22
12 30 -3 8 -2 19 2 25 5 8 9 5 11 -8 2 -11 8 -24 13 -29z m-1653 -103 c2 -9
-11 -13 -47 -13 -48 0 -68 9 -54 24 12 12 96 2 101 -11z m2362 -92 c36 -10 76
-23 90 -29 14 -5 52 -16 85 -23 33 -7 86 -24 118 -38 57 -26 57 -26 58 -71 0
-25 2 -56 4 -70 6 -55 8 -450 2 -456 -14 -14 -6 -22 38 -39 68 -26 145 -102
208 -207 30 -51 67 -104 81 -117 14 -14 26 -28 26 -33 0 -13 -72 -110 -112
-152 -21 -21 -38 -34 -38 -29 0 5 -17 10 -37 11 -21 1 -54 5 -74 8 -35 5 -37
8 -43 49 -5 30 -12 44 -25 48 -17 4 -19 -5 -25 -82 -8 -114 -10 -250 -4 -257
3 -2 18 0 33 6 36 14 43 5 22 -28 -13 -22 -23 -27 -49 -25 -43 4 -118 -6 -118
-15 0 -4 20 -20 45 -35 38 -25 43 -31 35 -48 -6 -10 -15 -19 -20 -19 -20 0
-48 -63 -54 -121 -9 -79 -13 -87 -47 -105 -25 -13 -29 -20 -29 -60 0 -34 -4
-46 -17 -50 -10 -3 -25 -9 -34 -14 -10 -5 -21 -4 -27 2 -13 13 -27 -32 -19
-62 7 -27 -5 -25 -33 5 -27 28 -40 32 -40 10 0 -8 -7 -15 -16 -15 -8 0 -13 4
-10 8 3 5 -6 15 -19 22 -13 7 -23 16 -20 19 2 4 -4 25 -14 46 -12 28 -17 65
-17 122 1 75 3 84 25 99 13 9 29 31 37 49 9 23 26 39 53 51 22 9 41 24 43 33
2 9 1 111 -2 226 l-6 210 -42 85 c-23 47 -61 121 -85 165 -23 44 -50 115 -60
159 -18 77 -29 105 -55 137 -25 32 -31 76 -14 100 8 12 17 47 18 76 3 49 0 57
-28 82 -21 19 -32 38 -33 62 -3 29 4 42 45 84 48 51 72 97 104 193 10 29 21
52 24 52 4 0 36 -8 72 -19z m-2187 -33 c38 -10 47 -17 47 -35 0 -12 -4 -25
-10 -28 -18 -11 -11 -64 10 -75 27 -14 26 -54 -2 -80 -15 -14 -35 -20 -64 -20
-24 0 -46 -4 -49 -10 -18 -30 -113 10 -103 43 2 7 10 34 18 61 l15 48 45 -6
c25 -3 55 -8 68 -12 18 -5 22 -2 22 15 0 20 -12 25 -50 23 -33 -2 -50 18 -50
59 0 46 -4 46 103 17z m-867 -87 c-12 -19 -24 -12 -19 10 4 13 9 17 15 11 6
-6 7 -15 4 -21z m1161 1 c-16 -2 -36 0 -45 4 -14 6 -13 8 8 14 14 4 34 2 45
-4 19 -10 18 -11 -8 -14z m-1102 8 c19 -8 19 -9 -2 -9 -12 -1 -25 4 -28 9 -7
12 2 12 30 0z m1152 -42 c-3 -7 -5 -2 -5 12 0 14 2 19 5 13 2 -7 2 -19 0 -25z
m958 -27 c-6 -5 -25 10 -25 20 0 5 6 4 14 -3 8 -7 12 -15 11 -17z m210 9 c-3
-5 -14 -10 -23 -10 -15 0 -15 2 -2 10 20 13 33 13 25 0z m-163 -60 c6 0 8 -3
5 -6 -10 -11 -38 17 -30 30 5 7 9 5 11 -6 2 -10 8 -18 14 -18z m-992 -21 c10
-23 9 -30 -9 -48 -12 -12 -21 -25 -21 -30 0 -6 -17 -3 -37 5 -87 34 -95 43
-72 85 8 16 20 19 69 18 54 -2 60 -4 70 -30z m872 -74 c20 -14 41 -25 47 -25
20 0 22 -22 6 -57 -13 -26 -15 -48 -10 -88 6 -50 -5 -80 -20 -55 -3 5 -15 10
-25 10 -11 0 -23 8 -29 18 -10 19 -20 222 -11 222 3 0 22 -11 42 -25z m693
-141 c26 -28 23 -54 -5 -54 -10 0 -27 -3 -37 -6 -15 -6 -16 -4 -5 7 17 18 15
39 -4 39 -23 0 -55 20 -49 31 13 20 75 10 100 -17z m-76 -191 c-15 -17 -32 -2
-23 21 5 13 9 14 20 5 11 -9 12 -15 3 -26z m-79 12 c0 -8 -4 -15 -10 -15 -5 0
-7 7 -4 15 4 8 8 15 10 15 2 0 4 -7 4 -15z m817 -15 c-1 -11 -4 -20 -8 -20 -4
0 -6 11 -5 24 0 13 4 22 8 20 4 -2 6 -13 5 -24z m23 -40 c0 -5 -4 -10 -10 -10
-5 0 -10 5 -10 10 0 6 5 10 10 10 6 0 10 -4 10 -10z m-1255 -10 c-44 -17 -48
-33 -35 -132 15 -108 14 -171 -1 -288 -13 -97 -5 -526 12 -625 11 -66 6 -494
-10 -820 -6 -110 -13 -271 -17 -357 -4 -87 -11 -158 -15 -158 -5 0 -9 -5 -9
-10 0 -11 -149 -157 -210 -206 -19 -15 -54 -46 -78 -67 -36 -32 -46 -36 -58
-26 -13 11 -14 35 -9 158 4 80 9 149 11 153 9 15 44 384 44 473 0 50 5 135 10
190 25 248 15 718 -15 706 -5 -3 -13 6 -17 20 -27 95 -31 115 -29 124 4 14
-42 155 -51 155 -3 0 -10 -10 -13 -21 -6 -19 -56 -70 -89 -91 -7 -5 -10 -58
-8 -157 1 -98 -2 -151 -9 -151 -6 0 -7 -13 -4 -34 10 -49 -12 -55 -25 -7 -6
22 -15 43 -20 46 -6 3 -10 23 -10 44 0 65 -12 131 -23 124 -11 -7 -2 -231 14
-348 5 -38 12 -119 16 -178 5 -100 4 -111 -16 -137 -11 -16 -21 -40 -21 -54 0
-43 -18 -76 -41 -76 -17 0 -20 -4 -15 -22 3 -13 6 -28 6 -34 0 -7 20 -39 45
-73 25 -34 45 -66 45 -72 0 -7 8 -17 17 -24 15 -11 14 -16 -17 -55 -42 -54
-44 -85 -8 -130 15 -19 28 -38 28 -43 0 -4 -20 -5 -45 -1 -51 7 -57 -4 -30
-56 10 -19 11 -31 5 -35 -6 -4 -8 -16 -5 -26 4 -11 7 -41 7 -67 0 -25 6 -58
13 -72 7 -14 16 -70 20 -125 4 -55 13 -111 20 -125 14 -29 26 -110 16 -110 -3
0 -11 8 -18 18 -30 49 -166 81 -340 83 -113 0 -128 -2 -185 -27 -129 -56 -151
-98 -172 -329 -3 -33 -1 -89 4 -125 l10 -65 -32 -26 c-20 -17 -27 -28 -18 -31
14 -4 -161 -88 -185 -88 -11 0 -8 14 12 58 14 31 36 89 48 127 56 172 98 265
164 365 29 44 44 87 79 230 38 152 69 332 75 423 1 16 11 36 22 45 25 20 74
92 103 148 l21 41 -24 23 c-21 20 -25 33 -25 81 0 32 -5 70 -11 85 -5 16 -12
62 -14 103 -2 41 -9 87 -15 102 -8 19 -8 38 0 68 13 48 30 55 133 55 56 0 67
3 67 17 0 9 -7 22 -15 29 -10 8 -15 30 -15 65 0 95 -48 88 -63 -10 -10 -64
-50 -83 -91 -42 -21 21 -23 35 -29 157 -8 171 -9 168 105 151 120 -18 125 -19
132 -37 7 -18 -24 -60 -33 -46 -3 5 -15 12 -27 16 -19 6 -22 2 -27 -46 -4 -28
-5 -54 -3 -56 3 -2 14 6 26 18 12 12 28 19 37 16 8 -3 19 -6 24 -6 5 0 9 -14
9 -32 0 -128 113 296 146 547 30 232 69 333 147 375 25 14 86 47 134 74 48 27
122 67 163 89 89 48 125 71 165 108 51 46 107 79 134 78 24 0 24 -1 6 -9z
m579 -9 c3 -4 7 -22 8 -39 1 -18 7 -28 14 -25 13 5 46 -61 63 -124 6 -23 19
-59 28 -80 9 -21 16 -41 15 -46 -1 -4 17 -27 41 -51 52 -52 60 -68 47 -102 -9
-24 -11 -24 -37 -11 -31 17 -102 42 -147 52 l-30 6 31 27 c37 32 36 66 -3 103
-28 27 -30 36 -7 61 20 23 9 36 -18 20 -21 -14 -41 -8 -38 11 1 7 -1 20 -5 29
-6 13 -13 15 -31 8 -17 -6 -25 -5 -29 5 -3 8 -14 12 -26 10 -23 -4 -25 4 -8
40 13 28 20 30 49 13 17 -11 22 -10 35 6 8 11 14 30 14 42 0 43 20 69 34 45z
m-218 -142 c3 -6 1 -16 -5 -22 -8 -8 -11 -8 -11 1 0 7 -11 22 -25 34 -14 12
-25 26 -25 30 0 10 56 -27 66 -43z m1402 -92 c2 -16 1 -36 -3 -44 -5 -14 -7
-14 -20 3 -21 28 -20 76 3 72 10 -2 18 -14 20 -31z m-1508 -41 c-7 -7 -10 1
-9 25 0 32 1 33 10 10 6 -16 6 -28 -1 -35z m68 8 c34 -53 21 -65 -21 -20 -37
39 -42 48 -31 59 11 10 29 -3 52 -39z m196 -60 c22 -8 20 -41 -3 -53 -14 -8
-22 -6 -35 8 -29 32 -4 61 38 45z m1196 -52 c0 -5 -18 -14 -40 -21 -36 -11
-41 -16 -46 -51 -4 -22 -10 -40 -13 -40 -4 0 -14 17 -24 37 -19 43 -9 63 32
63 14 0 33 5 41 10 19 12 50 13 50 2z m-1406 -174 c24 -34 19 -44 -9 -18 -14
13 -25 27 -25 32 0 16 19 8 34 -14z m-3854 -49 c52 -4 145 -12 205 -17 158
-14 199 -22 235 -43 30 -19 32 -22 26 -67 -3 -26 -8 -80 -12 -119 -6 -67 -8
-73 -29 -73 -13 0 -25 -7 -29 -15 -3 -8 -2 -15 3 -15 9 0 45 -79 60 -130 24
-86 28 -108 23 -138 -2 -18 -9 -32 -16 -31 -18 1 -52 18 -38 18 20 1 14 28 -8
34 -22 6 -27 -12 -11 -41 23 -43 -115 -138 -181 -125 -43 8 -76 -4 -80 -30 -2
-18 -10 -23 -45 -25 -37 -3 -43 0 -43 17 0 26 -36 37 -58 18 -26 -23 -67 -31
-80 -15 -6 8 -18 81 -27 164 -8 82 -24 232 -35 334 -25 230 -25 278 -3 302 10
11 23 16 32 12 9 -3 59 -10 111 -15z m4070 -35 c11 -20 19 -46 17 -58 -3 -17
-8 -12 -25 24 -34 72 -29 95 8 34z m990 26 c0 -5 -5 -10 -10 -10 -14 0 -34
-49 -31 -77 1 -11 -3 -24 -8 -28 -7 -3 -8 0 -5 9 3 9 1 16 -5 16 -12 0 -16 82
-4 93 10 11 63 8 63 -3z m-150 -197 c0 -3 -6 -14 -14 -22 -8 -9 -17 -34 -20
-55 -8 -48 -12 -53 -24 -29 -12 21 -22 100 -14 108 8 7 72 6 72 -2z m-2810
-128 c0 -16 -45 -21 -54 -6 -8 12 4 21 31 21 14 0 23 -6 23 -15z m-800 -61
c14 -8 36 -18 50 -24 14 -5 32 -15 42 -22 20 -15 48 4 48 33 0 34 35 20 71
-28 40 -54 90 -182 83 -211 -4 -14 4 -23 35 -37 67 -30 55 -47 -42 -60 -56 -7
-428 14 -440 25 -7 6 -12 227 -8 328 1 22 3 22 69 16 37 -4 78 -13 92 -20z
m3470 -17 c-14 -7 -26 -21 -28 -32 -3 -10 -10 -25 -17 -32 -11 -11 -15 -7 -25
22 -6 19 -9 39 -5 45 3 5 27 10 53 10 44 0 46 -1 22 -13z m-2635 -52 c22 -7
64 -15 94 -19 53 -5 85 -21 76 -36 -3 -5 -1 -11 5 -15 6 -4 8 -11 4 -16 -4 -6
-11 -6 -20 1 -10 9 -20 7 -42 -9 -16 -11 -35 -27 -42 -36 -7 -8 -21 -15 -31
-15 -30 0 -45 -43 -25 -71 19 -28 21 -63 3 -77 -16 -14 -261 -8 -300 7 -25 10
-27 14 -29 78 -6 166 -1 184 65 217 26 13 49 15 117 10 47 -3 103 -12 125 -19z
m1872 -12 c3 -8 -11 -10 -49 -6 -43 4 -58 2 -71 -12 -17 -17 -23 -10 -9 11 15
24 122 30 129 7z m148 -99 c34 -20 69 -48 78 -63 9 -14 35 -46 58 -71 22 -25
52 -65 67 -90 14 -25 32 -53 40 -63 21 -24 8 -33 -21 -14 -13 8 -83 73 -157
144 -93 89 -139 127 -154 126 -16 -1 -17 0 -3 3 12 4 16 12 12 25 -6 18 0 39
12 39 4 0 34 -16 68 -36z m-375 15 c75 -12 96 -25 54 -34 -47 -10 -59 -21 -59
-51 0 -27 -3 -29 -42 -32 -26 -2 -51 3 -67 13 -21 14 -23 20 -16 45 5 18 5 32
-1 35 -5 4 -9 13 -9 21 0 17 47 18 140 3z m140 -8 c0 -5 -11 -11 -25 -13 -24
-5 -32 2 -18 15 9 10 43 8 43 -2z m-45 -51 c-3 -5 -2 -10 3 -10 6 0 8 -9 5
-20 -7 -25 -8 -23 -17 13 -4 17 -2 27 4 27 6 0 8 -4 5 -10z m2 -92 c-3 -8 -6
-5 -6 6 -1 11 2 17 5 13 3 -3 4 -12 1 -19z m145 -50 c5 -63 -4 -119 -15 -100
-5 6 -6 16 -2 21 3 5 -2 16 -10 25 -9 9 -11 17 -5 21 5 3 10 24 10 46 0 58 17
47 22 -13z m-146 -36 c-12 -12 -18 8 -10 35 l8 28 4 -28 c2 -16 1 -31 -2 -35z
m-3463 -14 c41 -16 37 -28 -13 -43 -14 -4 -31 -12 -39 -19 -7 -6 -21 -11 -30
-11 -13 0 -17 -17 -23 -94 -4 -52 -4 -99 1 -105 5 -6 11 -56 15 -111 4 -55 11
-127 16 -160 6 -33 13 -102 16 -153 6 -79 4 -98 -12 -127 -10 -19 -25 -35 -34
-35 -13 0 -13 2 0 10 12 7 9 11 -11 18 -55 21 -89 18 -89 -8 0 -11 -5 -20 -11
-20 -6 0 -9 -9 -6 -19 2 -11 -7 -44 -21 -73 -16 -33 -25 -66 -23 -88 1 -19 3
-51 4 -70 l2 -35 -56 -3 c-81 -4 -84 2 -105 191 -9 87 -14 160 -11 163 3 3 38
6 77 6 l72 1 -7 36 c-20 100 -26 159 -31 296 -5 110 -10 152 -20 160 -22 16
-21 172 0 214 21 41 30 44 129 50 9 1 17 7 17 14 0 33 119 43 193 15z m3402
-18 c3 -5 1 -10 -5 -10 -19 0 -35 -47 -21 -64 9 -11 8 -15 -5 -20 -24 -9 -122
-7 -128 3 -14 23 -17 84 -4 92 18 12 156 11 163 -1z m-1496 -65 l41 -56 -40
-54 c-22 -30 -48 -55 -56 -55 -20 0 -52 17 -87 46 -16 13 -32 24 -37 24 -17 0
-16 -36 1 -71 11 -21 20 -73 24 -130 l7 -95 -26 -12 c-43 -19 -55 -15 -66 27
-10 38 -13 346 -3 384 4 14 11 16 44 11 28 -5 44 -2 57 8 22 19 40 26 73 27
20 1 35 -11 68 -54z m1969 20 c16 -35 17 -35 -23 -33 -19 1 -35 5 -35 10 0 4
4 8 9 8 5 0 7 9 4 20 -8 31 31 26 45 -5z m-411 -27 c-3 -7 -5 -2 -5 12 0 14 2
19 5 13 2 -7 2 -19 0 -25z m640 -61 c32 -30 65 -58 74 -63 53 -30 155 -134
131 -134 -25 0 -282 218 -282 240 0 20 20 9 77 -43z m-637 -22 c0 -8 -4 -15
-10 -15 -5 0 -7 7 -4 15 4 8 8 15 10 15 2 0 4 -7 4 -15z m-50 -84 c0 -5 -7
-11 -15 -15 -8 -3 -22 -23 -30 -44 -16 -39 -17 -39 -68 -38 l-52 1 -1 39 c0
22 -6 42 -12 44 -7 2 -12 8 -12 13 0 5 43 9 95 9 52 0 95 -4 95 -9z m233 -112
c29 -33 29 -52 1 -28 -15 12 -16 11 -9 -20 5 -22 4 -31 -3 -27 -18 11 -22 -9
-7 -37 16 -31 16 -31 -19 -17 -17 6 -26 6 -26 0 0 -6 5 -10 10 -10 6 0 10 -7
10 -15 0 -10 -10 -15 -31 -15 -22 0 -28 -4 -22 -12 14 -23 11 -34 -9 -35 -28
-3 -30 -7 -17 -37 7 -14 9 -29 4 -34 -4 -4 -10 -1 -12 6 -5 13 -43 17 -43 4 0
-4 5 -13 12 -20 17 -17 4 -24 -26 -12 -25 9 -26 8 -16 -11 13 -24 7 -49 -12
-49 -15 0 -98 74 -98 87 0 5 10 19 23 31 42 40 57 59 57 70 0 6 9 14 20 17 11
3 20 11 20 17 0 6 7 18 15 27 48 53 55 62 55 71 0 5 9 14 20 20 11 6 20 17 20
26 0 12 28 31 50 33 3 1 18 -13 33 -30z m-373 -199 c0 -5 -7 -10 -15 -10 -8 0
-15 5 -15 10 0 6 7 10 15 10 8 0 15 -4 15 -10z m41 -17 c3 -58 -14 -91 -31
-63 -8 12 -12 13 -19 2 -6 -11 -10 -10 -15 3 -8 22 2 38 20 31 10 -4 14 3 14
24 0 40 29 42 31 3z m-1355 -100 c-10 -10 -19 5 -10 18 6 11 8 11 12 0 2 -7 1
-15 -2 -18z m-496 -205 c0 -36 -32 -68 -67 -68 -16 0 -41 -9 -58 -20 -40 -27
-111 -26 -175 2 -27 12 -50 27 -50 33 0 19 38 48 55 41 9 -3 32 3 53 14 21 11
56 20 82 20 25 0 63 9 85 19 36 16 42 17 58 3 9 -8 17 -28 17 -44z m-434 -15
c-10 -10 -19 5 -10 18 6 11 8 11 12 0 2 -7 1 -15 -2 -18z m-987 -34 c28 -31
38 -115 16 -139 -24 -26 -65 -8 -65 29 0 14 -3 50 -6 79 -6 48 -5 52 14 52 12
0 30 -9 41 -21z m4120 -79 c7 -41 17 -90 22 -108 6 -17 8 -41 4 -51 -3 -11 -2
-22 3 -25 6 -3 13 -23 17 -43 5 -21 9 -42 11 -48 1 -5 7 -30 12 -55 11 -50 37
-146 54 -200 6 -19 10 -48 10 -65 -2 -42 7 -65 24 -65 8 0 14 -4 14 -10 0 -5
-7 -10 -15 -10 -8 0 -15 -4 -15 -10 0 -5 7 -10 15 -10 8 0 15 -4 15 -8 0 -5 9
-19 20 -32 11 -13 20 -31 20 -42 0 -10 4 -18 10 -18 5 0 14 -18 20 -40 13 -47
28 -52 37 -10 5 27 33 44 33 20 0 -5 7 -10 15 -10 8 0 15 5 15 10 0 16 14 12
38 -10 23 -22 82 -27 83 -7 0 6 5 2 11 -10 19 -38 31 -26 25 25 -2 26 -8 55
-12 66 -6 14 -5 17 6 14 8 -3 13 -12 11 -22 -2 -9 1 -16 6 -16 20 0 104 -246
126 -370 26 -145 26 -202 1 -319 -13 -60 -30 -122 -38 -138 -9 -16 -18 -45
-22 -66 -4 -20 -11 -40 -16 -43 -5 -3 -9 -12 -9 -19 0 -34 -82 -178 -94 -164
-1 2 -14 24 -27 49 -13 25 -28 48 -32 51 -5 3 -7 8 -6 10 2 2 -13 31 -32 64
-90 154 -143 285 -228 562 -27 87 -67 295 -82 418 -5 50 -17 128 -24 175 -25
145 -45 348 -51 515 -6 171 4 197 25 65z m-1216 -485 c-13 -25 -29 -47 -34
-50 -5 -4 -9 -11 -9 -17 0 -6 8 -3 19 6 17 16 19 16 23 -2 7 -25 -24 -231 -38
-253 -6 -10 -16 -51 -44 -174 -6 -27 -14 -57 -19 -65 -4 -8 -14 -40 -21 -70
-7 -30 -21 -68 -32 -85 -10 -16 -18 -36 -18 -43 0 -12 -26 -71 -88 -202 -10
-19 -34 -60 -54 -91 -21 -31 -38 -59 -38 -62 0 -7 -48 -79 -58 -87 -4 -3 -16
-21 -26 -40 -11 -19 -22 -37 -26 -40 -15 -13 -80 -109 -80 -119 0 -6 -4 -11
-8 -11 -4 0 -16 -14 -26 -31 -10 -17 -37 -52 -60 -78 -22 -26 -52 -62 -66 -81
-34 -45 -91 -100 -106 -100 -12 0 -218 122 -244 145 -22 19 -117 65 -135 65
-8 0 -15 4 -15 9 0 13 71 160 100 206 13 21 19 40 14 45 -5 5 -58 22 -117 38
-120 33 -134 41 -119 68 8 14 40 24 134 41 67 12 149 25 180 29 l57 6 63 97
c34 53 68 102 75 109 7 7 13 18 13 23 0 5 9 9 21 9 15 0 20 5 17 23 -3 19 2
22 40 25 26 2 42 -1 42 -8 0 -6 4 -9 9 -5 11 6 61 -40 61 -58 0 -22 101 88
120 131 10 23 25 42 33 42 8 0 19 12 26 28 17 37 83 132 92 132 4 0 14 17 22
38 8 20 27 51 41 67 15 17 26 42 26 58 0 20 7 30 25 37 14 5 25 16 25 25 0 9
9 15 21 15 16 0 20 5 16 20 -4 14 0 20 12 20 12 0 19 14 27 55 5 30 6 55 2 55
-4 0 -19 -11 -33 -25 -16 -17 -25 -21 -25 -12 0 8 28 39 62 68 34 30 67 60 75
67 7 7 18 10 24 6 7 -4 9 -3 5 4 -5 8 28 42 41 42 1 0 -10 -20 -24 -45z m-695
-17 c17 -11 32 -27 33 -36 3 -45 -3 -100 -12 -124 -9 -22 -7 -34 12 -67 12
-23 20 -44 16 -47 -3 -3 -13 10 -21 30 -9 22 -25 40 -41 46 -34 13 -133 2
-165 -19 -35 -22 -100 -51 -115 -51 -8 0 -20 -7 -29 -15 -13 -13 -15 -13 -21
4 -9 28 12 108 48 184 29 60 36 68 67 73 19 4 38 11 41 17 10 15 101 37 129
31 14 -3 40 -15 58 -26z m2387 -218 c3 -5 1 -10 -4 -10 -6 0 -11 5 -11 10 0 6
2 10 4 10 3 0 8 -4 11 -10z m-2305 -91 c0 -6 -4 -7 -10 -4 -5 3 -10 11 -10 16
0 6 5 7 10 4 6 -3 10 -11 10 -16z m-2583 -156 c-3 -10 -5 -2 -5 17 0 19 2 27
5 18 2 -10 2 -26 0 -35z m2463 -186 c-12 -26 -31 -54 -43 -62 -22 -14 -138
-35 -187 -34 -24 1 -24 1 4 9 16 5 51 10 78 11 26 2 48 6 48 9 0 4 11 13 25
20 14 8 40 36 57 64 37 60 47 50 18 -17z m-2195 -57 c4 -6 33 -8 77 -3 64 5
70 4 67 -12 -3 -15 -16 -18 -82 -19 -42 0 -77 3 -77 7 0 5 -9 5 -20 2 -22 -7
-26 5 -8 23 15 15 35 16 43 2z m387 -6 c12 -11 -47 -101 -97 -146 -34 -31 -45
-34 -45 -14 0 9 -12 16 -32 18 -26 2 -36 10 -49 38 -29 61 -15 74 85 82 48 4
95 12 104 18 20 11 27 12 34 4z m1402 -838 c71 -33 215 -125 263 -168 l21 -20
-74 -102 c-93 -127 -84 -115 -116 -158 -16 -20 -28 -40 -28 -43 0 -4 -15 -25
-34 -48 -18 -23 -43 -64 -54 -90 -12 -26 -30 -60 -42 -74 -11 -14 -20 -36 -20
-49 0 -12 -4 -25 -9 -28 -4 -3 -18 -38 -30 -78 -13 -40 -29 -88 -37 -106 -8
-18 -14 -51 -14 -73 0 -22 -4 -48 -10 -58 -16 -30 -40 -257 -40 -371 1 -58 7
-134 15 -170 19 -85 19 -126 0 -133 -30 -12 -70 70 -109 227 -38 150 -31 454
14 656 16 72 102 340 139 433 6 16 15 76 21 135 10 111 36 276 47 302 6 14 9
23 12 43 2 11 3 10 85 -27z m-2617 -168 c-3 -8 -6 -5 -6 6 -1 11 2 17 5 13 3
-3 4 -12 1 -19z m-92 -1298 c-3 -5 -12 -7 -20 -3 -21 7 -19 13 6 13 11 0 18
-4 14 -10z m-35 -30 c0 -5 -4 -10 -10 -10 -5 0 -10 5 -10 10 0 6 5 10 10 10 6
0 10 -4 10 -10z m-40 -140 c0 -5 -13 -10 -30 -10 -16 0 -30 5 -30 10 0 6 14
10 30 10 17 0 30 -4 30 -10z m6659 -872 c5 -35 20 -125 32 -200 19 -120 24
-138 40 -138 11 0 20 0 22 0 1 0 31 -11 67 -23 75 -28 72 -24 205 -283 58
-114 79 -167 73 -177 -4 -9 -34 -30 -66 -48 -31 -18 -104 -60 -162 -95 -58
-34 -186 -108 -285 -164 -206 -118 -206 -118 -340 -195 -55 -32 -113 -66 -130
-75 -151 -87 -203 -117 -282 -164 -34 -20 -64 -36 -68 -36 -4 0 -19 -8 -33
-19 -15 -10 -63 -38 -107 -62 l-80 -44 -485 -7 c-267 -4 -683 -11 -925 -16
l-440 -8 -350 172 c-192 94 -368 179 -390 189 -22 10 -176 85 -342 166 -266
130 -333 169 -292 169 12 0 33 21 36 37 1 6 -4 16 -11 22 -10 9 -17 6 -30 -14
-25 -37 -70 -57 -129 -54 -75 3 -119 34 -131 90 -3 17 -16 31 -35 39 -37 15
-38 28 -5 105 14 33 45 114 70 179 53 144 62 159 105 173 55 18 242 83 264 93
11 4 56 21 100 38 44 16 235 89 425 161 190 72 351 131 358 131 15 0 15 4 -4
-86 -30 -148 -11 -161 115 -79 78 50 86 53 102 39 13 -11 16 -25 12 -55 -3
-21 0 -58 7 -82 11 -40 14 -44 43 -43 31 1 56 19 129 89 16 15 32 27 36 27 5
0 20 -13 35 -28 19 -20 25 -34 21 -47 -6 -14 -4 -17 7 -13 10 4 14 -1 14 -18
-2 -32 -12 -40 -20 -15 -7 23 -35 29 -35 7 0 -7 -12 -16 -27 -19 -33 -6 -44 0
-23 13 8 5 11 12 7 16 -4 4 -15 1 -23 -8 -12 -12 -24 -14 -48 -7 -29 8 -30 7
-12 -6 11 -8 30 -15 43 -15 13 0 23 -4 23 -10 0 -5 21 -10 48 -10 106 0 172
-81 172 -214 0 -127 -37 -166 -186 -192 -49 -9 -91 -18 -94 -21 -9 -9 35 -27
60 -24 17 1 36 -7 53 -23 45 -42 85 -57 162 -63 76 -6 162 13 195 42 23 21
347 52 582 56 81 2 89 0 130 -29 50 -35 108 -47 234 -47 84 0 94 2 133 29 55
39 71 71 71 148 0 71 8 110 21 103 4 -3 5 -13 2 -22 -5 -13 -2 -15 15 -11 14
4 22 2 22 -6 0 -7 11 -18 25 -24 22 -10 27 -9 41 13 11 17 14 35 10 59 -7 38
10 56 56 56 36 1 86 52 80 83 -1 4 4 7 11 7 9 0 9 2 -1 9 -8 5 -14 28 -15 57
0 27 -6 55 -13 62 -15 15 -28 16 -18 1 3 -6 -5 -4 -18 5 l-24 16 4 -55 c4 -48
1 -57 -23 -81 l-27 -27 -20 24 c-29 37 -38 65 -29 96 6 21 4 33 -11 47 -19 21
-24 51 -9 60 5 4 7 -4 5 -16 -4 -21 -4 -22 5 -3 17 36 14 48 -10 32 -13 -10
-34 -13 -60 -10 l-39 6 4 -45 c5 -57 -5 -78 -29 -55 -27 27 -34 20 -19 -20 20
-56 18 -60 -28 -67 -24 -4 -71 -11 -105 -17 l-62 -11 14 -29 c27 -52 107 -48
121 6 5 21 12 25 40 25 29 0 34 -4 34 -23 0 -55 -60 -97 -140 -97 -95 0 -143
54 -143 160 0 63 20 103 65 126 l28 15 -20 39 c-11 22 -20 46 -20 55 0 27 35
16 59 -21 50 -73 71 -68 167 41 32 36 63 65 69 65 6 0 31 -20 55 -45 44 -45
70 -57 70 -32 1 27 19 135 29 175 12 44 30 53 52 26 19 -23 86 -64 104 -64 10
0 15 10 15 30 0 35 3 36 72 11 29 -11 100 -34 158 -51 58 -18 140 -43 183 -57
l78 -25 35 21 c39 23 108 28 148 9 28 -12 55 -48 65 -86 4 -15 16 -26 27 -28
17 -3 20 1 16 26 -6 39 13 92 43 120 27 25 95 41 119 28 19 -11 19 -14 6 52
-11 58 -5 70 36 70 19 0 23 -8 33 -62z m-2118 -202 c14 -28 36 -53 50 -59 13
-5 19 -11 12 -14 -7 -2 -22 1 -34 8 -19 10 -21 9 -16 -5 4 -11 1 -16 -11 -16
-9 0 -30 -7 -46 -15 -41 -22 -54 -13 -61 39 -6 37 -3 52 15 81 31 50 57 44 91
-19z m149 -40 c0 -8 -4 -17 -10 -21 -5 -3 -7 -12 -3 -20 7 -19 -5 -18 -37 0
-21 12 -22 14 -6 15 11 0 17 3 13 6 -8 8 15 33 31 34 6 0 12 -6 12 -14z m175
-118 c29 -13 60 -59 69 -104 l7 -31 -103 -17 c-56 -9 -104 -19 -106 -21 -9 -9
33 -56 55 -61 34 -9 71 10 79 41 5 21 12 25 40 25 29 0 34 -4 34 -23 0 -55
-60 -97 -140 -97 -95 0 -143 54 -143 161 0 42 5 64 22 88 12 17 27 29 32 26 5
-4 9 -2 9 4 0 21 104 28 145 9z m-250 -53 c0 -25 -4 -30 -25 -30 -56 0 -57 -6
-35 -207 4 -37 3 -38 -28 -38 l-33 0 -22 138 c-12 75 -22 141 -22 146 0 4 15
6 33 4 20 -2 39 2 46 10 8 8 28 12 49 10 34 -3 37 -6 37 -33z m3300 -253 c-9
-8 -35 -26 -165 -112 -30 -20 -62 -40 -70 -43 -8 -4 -42 -25 -75 -46 -105 -69
-193 -121 -205 -121 -24 0 -2 24 45 49 26 14 55 33 64 41 10 9 53 35 96 59 44
24 87 49 95 57 15 13 210 123 220 124 2 0 0 -4 -5 -8z m-3153 -104 c-11 -11
-78 -19 -302 -37 -157 -13 -223 -13 -215 -1 3 6 36 10 73 10 59 0 131 16 147
32 3 3 74 6 157 7 113 0 149 -2 140 -11z m2628 -226 c0 -4 -28 -25 -63 -47
-34 -21 -92 -58 -129 -82 -37 -24 -69 -43 -72 -43 -2 0 -44 -26 -93 -59 -48
-32 -110 -71 -138 -86 -27 -15 -57 -33 -65 -40 -8 -7 -66 -43 -128 -81 -62
-38 -136 -83 -165 -101 -29 -18 -59 -36 -67 -39 -8 -4 -17 -10 -20 -14 -6 -7
-108 -70 -115 -70 -2 0 -43 -25 -90 -55 -46 -30 -87 -55 -89 -55 -3 0 -25 -13
-49 -30 -25 -16 -49 -30 -55 -30 -6 0 -12 -4 -14 -8 -4 -10 -223 -136 -282
-163 -26 -11 -50 -18 -53 -15 -3 3 3 9 13 13 10 4 40 21 65 39 25 17 61 40 80
49 19 10 36 21 39 25 3 3 34 24 70 46 36 21 67 41 70 44 10 10 112 70 119 70
4 0 32 17 62 39 30 21 90 59 134 85 44 26 89 52 99 59 11 7 63 39 115 71 53
32 112 69 131 81 19 12 82 50 140 85 113 68 199 122 242 151 15 10 42 27 60
38 18 10 71 42 118 70 47 28 91 51 98 51 6 0 12 5 12 11 0 5 5 7 10 4 6 -3 10
-9 10 -13z m-1610 -867 c0 -11 -66 -45 -85 -44 -13 0 -5 8 25 24 47 24 60 28
60 20z m-701 -289 c2 -11 -5 -26 -15 -33 -14 -10 -17 -24 -15 -61 2 -35 -2
-52 -14 -62 -8 -7 -16 -11 -18 -9 -1 2 -7 13 -13 24 -7 11 -19 19 -27 19 -14
-1 -13 4 4 37 l19 39 -22 22 -23 23 25 3 c14 2 29 8 35 13 17 16 59 6 64 -15z
m3745 -31 c-4 -8 -14 -15 -23 -15 -14 1 -13 3 3 15 25 19 27 19 20 0z m-59
-14 c3 -5 1 -12 -5 -16 -5 -3 -10 1 -10 9 0 18 6 21 15 7z m-3650 -31 c7 -23
-12 -63 -26 -55 -15 10 -11 75 5 75 8 0 17 -9 21 -20z"/>
<path d="M4336 10511 c-18 -7 -18 -8 -2 -14 19 -8 36 -1 36 14 0 10 -7 11 -34
0z"/>
<path d="M4210 9960 c0 -5 11 -10 25 -10 14 0 25 5 25 10 0 6 -11 10 -25 10
-14 0 -25 -4 -25 -10z"/>
<path d="M4960 9466 c0 -16 277 -90 312 -83 18 3 17 5 -7 6 -21 1 -38 11 -58
36 -19 23 -36 35 -53 35 -14 0 -22 -4 -19 -10 3 -5 17 -10 30 -10 26 0 41 -15
25 -25 -10 -6 -25 -3 -140 34 -62 20 -90 26 -90 17z"/>
<path d="M5078 9453 c7 -3 16 -2 19 1 4 3 -2 6 -13 5 -11 0 -14 -3 -6 -6z"/>
<path d="M5348 9363 c7 -3 16 -2 19 1 4 3 -2 6 -13 5 -11 0 -14 -3 -6 -6z"/>
<path d="M5421 9014 c0 -11 3 -14 6 -6 3 7 2 16 -1 19 -3 4 -6 -2 -5 -13z"/>
<path d="M5131 8084 c0 -11 3 -14 6 -6 3 7 2 16 -1 19 -3 4 -6 -2 -5 -13z"/>
<path d="M3550 7765 c0 -14 5 -25 10 -25 6 0 10 11 10 25 0 14 -4 25 -10 25
-5 0 -10 -11 -10 -25z"/>
<path d="M3409 7492 c5 -10 17 -24 25 -32 13 -10 16 -10 16 3 0 17 -26 47 -41
47 -6 0 -6 -7 0 -18z"/>
<path d="M3310 7256 c0 -12 24 -32 45 -38 11 -3 29 -9 40 -14 12 -4 7 4 -13
20 -18 16 -36 26 -39 22 -3 -3 -12 -1 -20 5 -7 6 -13 8 -13 5z"/>
<path d="M2072 8209 c1 -13 8 -23 13 -21 15 3 12 35 -3 40 -9 3 -13 -3 -10
-19z"/>
<path d="M3975 6300 c-3 -5 1 -10 9 -10 9 0 16 5 16 10 0 6 -4 10 -9 10 -6 0
-13 -4 -16 -10z"/>
<path d="M2793 4625 c-3 -9 -3 -18 -1 -21 3 -3 8 4 11 16 6 23 -1 27 -10 5z"/>
<path d="M6630 2203 c-18 -23 -21 -36 -16 -73 8 -54 19 -66 73 -75 34 -5 44
-4 49 9 3 9 10 14 14 11 4 -2 4 16 -1 40 -20 108 -73 146 -119 88z"/>
<path d="M6330 2170 c-13 -8 -13 -9 0 -13 93 -28 108 -26 74 7 -17 18 -51 21
-74 6z"/>
<path d="M5610 2045 c0 -3 10 -16 21 -28 l21 -22 -11 22 c-11 22 -31 40 -31
28z"/>
<path d="M3830 1989 c0 -11 4 -18 10 -14 5 3 7 12 3 20 -7 21 -13 19 -13 -6z"/>
<path d="M5187 1978 c-9 -7 -21 -25 -26 -40 -10 -26 -10 -27 27 -21 20 3 52 8
70 12 l34 6 -22 28 c-23 29 -56 35 -83 15z"/>
<path d="M3754 1959 c-17 -7 -17 -8 -1 -8 30 -2 19 -18 -13 -18 -18 0 -27 4
-23 11 4 6 -1 4 -12 -4 -16 -14 -16 -15 -1 -18 9 -2 14 -9 10 -15 -3 -7 2 -3
11 8 11 13 19 16 22 8 3 -7 13 -9 31 -4 15 5 35 7 45 5 28 -4 19 10 -17 27
-20 9 -41 12 -52 8z m34 -24 c-3 -3 -9 2 -12 12 -6 14 -5 15 5 6 7 -7 10 -15
7 -18z"/>
<path d="M3636 1847 c2 -12 15 -96 30 -186 24 -147 25 -166 11 -176 -24 -17
-6 -33 21 -19 17 8 20 13 10 17 -11 4 -11 6 1 6 10 1 11 5 3 14 -6 7 -7 28 -2
55 4 23 4 42 0 42 -3 0 -5 14 -2 30 2 17 10 30 18 30 8 0 14 4 14 10 0 5 -6 7
-14 4 -7 -3 -16 2 -20 12 -5 12 -2 15 12 12 13 -4 18 0 17 11 -16 148 -16 148
-43 145 -14 -1 -33 1 -42 6 -14 7 -16 5 -14 -13z m94 -123 c0 -8 -19 -13 -24
-6 -3 5 1 9 9 9 8 0 15 -2 15 -3z"/>
<path d="M3816 1863 c-25 -4 -28 -8 -23 -31 3 -15 13 -79 23 -143 l18 -116 46
9 c69 12 100 28 115 59 30 56 14 151 -33 202 -26 28 -61 32 -146 20z"/>
<path d="M3340 1625 c-6 -30 -9 -59 -5 -65 3 -5 2 -10 -3 -10 -9 0 -21 -52
-27 -115 -6 -57 -31 -118 -52 -128 -24 -11 -22 -27 3 -27 8 0 19 11 24 24 5
13 15 26 22 29 10 4 10 6 -1 6 -10 1 -10 6 3 26 9 14 15 29 12 33 -3 5 1 20 9
35 8 17 10 29 4 33 -6 4 -6 10 1 19 6 7 7 20 4 30 -4 11 -2 22 7 29 8 6 15 20
16 31 2 11 5 36 9 56 10 61 -13 55 -26 -6z"/>
<path d="M2870 1565 c-14 -8 -20 -14 -14 -15 5 0 19 7 30 15 24 18 16 19 -16
0z"/>
<path d="M2588 1550 c-22 -13 -30 -57 -19 -95 7 -24 9 -26 10 -8 1 12 6 25 11
28 6 4 8 10 5 14 -2 5 0 22 5 40 5 17 8 31 7 31 -1 0 -10 -5 -19 -10z"/>
<path d="M2615 1540 c-3 -6 1 -7 9 -4 18 7 21 14 7 14 -6 0 -13 -4 -16 -10z"/>
<path d="M2267 1508 c-9 -7 -21 -25 -26 -41 -10 -26 -10 -27 17 -21 15 4 38
15 51 26 19 14 26 16 32 6 4 -7 10 -10 13 -7 3 3 -1 15 -10 27 -17 24 -51 29
-77 10z"/>
<path d="M2928 1478 c-9 -5 -6 -7 9 -5 12 2 25 6 28 8 8 9 -23 6 -37 -3z"/>
<path d="M2445 1447 c6 -22 2 -25 -62 -36 -84 -15 -103 -18 -126 -20 -16 -1
-16 -3 -3 -30 9 -16 23 -31 32 -35 14 -5 15 -4 4 9 -10 12 -9 16 4 21 9 3 25
4 35 1 12 -3 29 4 41 15 17 16 31 19 62 15 l40 -5 -6 41 c-3 23 -5 43 -5 45
-1 1 -6 2 -11 2 -6 0 -8 -10 -5 -23z"/>
<path d="M2908 1458 c5 -5 16 -8 23 -6 8 3 3 7 -10 11 -17 4 -21 3 -13 -5z"/>
<path d="M2884 1446 c1 -8 5 -18 8 -22 4 -3 5 1 4 10 -1 8 -5 18 -8 22 -4 3
-5 -1 -4 -10z"/>
<path d="M2769 1413 c-1 -4 -1 -11 0 -15 0 -5 -4 -8 -10 -8 -5 0 -8 -4 -5 -9
3 -5 -12 -21 -34 -36 -32 -22 -48 -26 -85 -23 -25 2 -45 0 -45 -4 0 -5 -7 -8
-15 -8 -8 0 -15 -7 -15 -15 0 -8 7 -15 15 -16 65 -3 107 -1 113 6 4 5 1 5 -7
0 -10 -5 -12 -4 -7 4 4 6 12 9 17 5 6 -3 21 -3 34 0 20 5 31 20 40 56 2 7 17
44 22 52 2 4 -1 9 -7 13 -5 3 -11 3 -11 -2z"/>
<path d="M3010 1381 c0 -6 5 -13 10 -16 6 -3 10 1 10 9 0 9 -4 16 -10 16 -5 0
-10 -4 -10 -9z"/>
<path d="M3048 1378 c9 -9 15 -9 24 0 9 9 7 12 -12 12 -19 0 -21 -3 -12 -12z"/>
<path d="M2880 1350 c0 -6 4 -9 10 -5 5 3 19 0 31 -7 17 -10 23 -10 26 0 3 6
10 9 15 6 6 -4 8 -3 5 2 -8 14 -87 17 -87 4z"/>
<path d="M4880 1931 c-8 -6 -18 -7 -24 -4 -5 3 -6 1 -2 -5 3 -6 2 -22 -3 -35
-10 -25 -9 -25 27 -20 20 3 52 8 70 12 l34 6 -22 28 c-22 27 -53 34 -80 18z"/>
<path d="M2230 11333 c1 -35 52 -43 58 -10 3 13 -3 17 -27 17 -17 0 -31 -3
-31 -7z"/>
<path d="M8616 11268 c-3 -40 -11 -165 -16 -278 -12 -234 -14 -268 -35 -630
-8 -146 -20 -354 -26 -462 l-11 -197 23 -41 24 -42 11 39 c13 43 54 894 71
1461 6 220 6 222 -15 222 -18 0 -21 -8 -26 -72z"/>
<path d="M717 11087 c-28 -25 -37 -39 -37 -64 0 -17 -4 -35 -10 -38 -5 -3 -10
-33 -10 -65 0 -32 5 -62 10 -65 6 -3 10 -20 10 -38 0 -29 1 -30 15 -11 13 17
14 17 15 2 0 -25 23 -22 54 7 15 14 31 25 36 25 18 0 21 21 9 55 -12 32 -11
37 11 60 21 22 22 28 10 35 -8 5 -20 10 -27 10 -13 0 -18 15 -28 78 -4 23 -10
42 -13 42 -4 -1 -24 -15 -45 -33z"/>
<path d="M585 10650 c-3 -5 3 -10 14 -10 12 0 21 5 21 10 0 6 -6 10 -14 10 -8
0 -18 -4 -21 -10z"/>
<path d="M7433 10177 c-54 -20 -141 -94 -163 -140 -11 -23 -27 -53 -34 -67
-89 -157 -85 -361 9 -464 18 -20 42 -36 53 -36 32 0 62 -58 62 -118 0 -28 4
-53 8 -56 4 -2 39 3 77 12 l70 17 7 67 c3 37 9 76 13 87 6 20 84 82 118 94 13
5 16 13 11 34 -11 45 -10 47 20 52 23 5 32 15 44 46 19 54 28 280 13 328 -15
46 -48 87 -64 81 -7 -2 -19 5 -27 17 -36 54 -47 59 -117 58 -38 0 -83 -6 -100
-12z m-119 -377 c55 -23 63 -54 19 -71 -32 -12 -43 -26 -43 -57 0 -31 -40 -47
-58 -24 -15 19 -7 138 10 160 14 16 18 15 72 -8z"/>
<path d="M5967 8353 c-8 -14 97 -315 137 -393 51 -101 134 -210 159 -210 11 0
-2 41 -19 61 -8 9 -12 24 -8 33 4 11 2 16 -7 14 -8 -2 -13 3 -12 9 2 7 -6 30
-16 50 -41 81 -111 262 -111 286 0 9 -4 17 -9 17 -5 0 -12 11 -15 25 -15 60
-83 134 -99 108z"/>
<path d="M5884 8162 c-31 -21 -14 -112 21 -112 9 0 39 -22 68 -50 84 -80 94
-67 38 49 -50 102 -64 121 -91 121 -14 0 -30 -4 -36 -8z"/>
<path d="M5780 8081 c0 -35 72 -256 110 -337 20 -45 50 -96 66 -115 52 -60 81
-89 88 -89 5 0 43 -32 90 -75 28 -26 62 -45 83 -45 28 0 29 11 4 64 -10 23
-26 65 -35 95 -31 96 -155 289 -238 370 -85 83 -159 151 -164 151 -2 0 -4 -8
-4 -19z"/>
<path d="M6020 5983 c0 -5 20 -41 44 -81 31 -51 46 -68 50 -56 10 26 7 54 -7
54 -15 0 -44 32 -59 66 -11 22 -28 33 -28 17z"/>
<path d="M6116 5825 c-3 -8 -1 -17 5 -20 5 -4 21 -29 35 -57 19 -38 28 -48 35
-37 12 20 11 29 -4 29 -14 0 -40 46 -34 58 2 4 -4 15 -14 24 -14 13 -18 14
-23 3z"/>
<path d="M6196 5692 c-3 -5 2 -18 10 -30 19 -28 39 -29 24 -2 -6 11 -8 25 -5
30 3 6 -1 10 -9 10 -8 0 -17 -4 -20 -8z"/>
<path d="M6250 5650 c0 -5 5 -10 10 -10 6 0 10 5 10 10 0 6 -4 10 -10 10 -5 0
-10 -4 -10 -10z"/>
<path d="M8799 5503 c-5 -13 -9 -32 -9 -41 -1 -47 -94 -92 -190 -92 l-55 0 30
-16 c51 -26 341 -36 398 -13 25 11 27 15 27 76 0 92 -17 108 -116 109 -71 2
-76 0 -85 -23z"/>
<path d="M7528 5423 c-10 -2 -15 -10 -11 -19 6 -16 79 -19 103 -4 11 7 5 8
-18 4 -24 -5 -32 -3 -30 7 3 14 -17 20 -44 12z"/>
<path d="M7672 5401 c-21 -13 13 -22 40 -11 13 5 18 9 11 9 -6 1 -17 3 -25 6
-7 3 -19 1 -26 -4z"/>
<path d="M7928 5343 c7 -3 16 -2 19 1 4 3 -2 6 -13 5 -11 0 -14 -3 -6 -6z"/>
<path d="M8160 5321 c0 -17 151 -43 166 -28 4 4 -5 7 -20 7 -15 0 -35 4 -44 9
-23 11 -102 21 -102 12z"/>
<path d="M8515 5270 c-3 -5 -5 -10 -3 -10 2 0 39 -7 83 -16 140 -27 188 -35
286 -47 53 -7 102 -11 108 -9 6 2 11 14 11 27 0 21 -6 23 -97 34 -54 6 -158
13 -231 16 -74 3 -138 7 -142 10 -5 3 -11 1 -15 -5z"/>
<path d="M80 4475 c0 -8 5 -15 10 -15 6 0 10 7 10 15 0 8 -4 15 -10 15 -5 0
-10 -7 -10 -15z"/>
<path d="M6583 4314 c-8 -23 3 -125 18 -157 21 -45 43 -31 47 30 5 81 -45 179
-65 127z"/>
<path d="M8688 4259 c-10 -5 -18 -17 -18 -24 0 -8 -4 -15 -10 -15 -5 0 -10 -8
-10 -18 0 -29 116 -142 146 -142 8 0 14 -4 14 -10 0 -5 7 -10 16 -10 9 0 28
-6 42 -14 15 -7 43 -19 62 -25 73 -26 68 -32 69 68 l2 91 -35 0 c-19 0 -47 5
-63 12 -37 15 -38 15 -72 17 -17 1 -45 16 -74 41 -51 45 -46 43 -69 29z"/>
<path d="M4132 77 c-14 -16 -4 -57 13 -57 13 0 24 37 17 58 -5 16 -17 15 -30
-1z"/>
</g>
</svg>
